%TF.GenerationSoftware,KiCad,Pcbnew,9.0.7*%
%TF.CreationDate,2026-03-16T19:58:20-04:00*%
%TF.ProjectId,StarLight,53746172-4c69-4676-9874-2e6b69636164,rev?*%
%TF.SameCoordinates,Original*%
%TF.FileFunction,Soldermask,Bot*%
%TF.FilePolarity,Negative*%
%FSLAX46Y46*%
G04 Gerber Fmt 4.6, Leading zero omitted, Abs format (unit mm)*
G04 Created by KiCad (PCBNEW 9.0.7) date 2026-03-16 19:58:20*
%MOMM*%
%LPD*%
G01*
G04 APERTURE LIST*
G04 Aperture macros list*
%AMRoundRect*
0 Rectangle with rounded corners*
0 $1 Rounding radius*
0 $2 $3 $4 $5 $6 $7 $8 $9 X,Y pos of 4 corners*
0 Add a 4 corners polygon primitive as box body*
4,1,4,$2,$3,$4,$5,$6,$7,$8,$9,$2,$3,0*
0 Add four circle primitives for the rounded corners*
1,1,$1+$1,$2,$3*
1,1,$1+$1,$4,$5*
1,1,$1+$1,$6,$7*
1,1,$1+$1,$8,$9*
0 Add four rect primitives between the rounded corners*
20,1,$1+$1,$2,$3,$4,$5,0*
20,1,$1+$1,$4,$5,$6,$7,0*
20,1,$1+$1,$6,$7,$8,$9,0*
20,1,$1+$1,$8,$9,$2,$3,0*%
G04 Aperture macros list end*
%ADD10C,1.600000*%
%ADD11C,1.295400*%
%ADD12R,1.295400X1.295400*%
%ADD13C,1.700000*%
%ADD14R,1.700000X1.700000*%
%ADD15RoundRect,0.250000X-0.550000X-0.550000X0.550000X-0.550000X0.550000X0.550000X-0.550000X0.550000X0*%
%ADD16C,1.650000*%
%ADD17RoundRect,0.412500X-0.412500X-0.412500X0.412500X-0.412500X0.412500X0.412500X-0.412500X0.412500X0*%
%ADD18R,1.800000X1.800000*%
%ADD19C,1.800000*%
%ADD20C,2.000000*%
G04 APERTURE END LIST*
D10*
%TO.C,R2*%
X142725000Y-98700000D03*
X135105000Y-98700000D03*
%TD*%
D11*
%TO.C,U2*%
X165050000Y-87370000D03*
X165050000Y-89910000D03*
X165050000Y-92450000D03*
X165050000Y-94990000D03*
X165050000Y-97530000D03*
X165050000Y-100070000D03*
X165050000Y-102610000D03*
X165050000Y-105150000D03*
X157430000Y-105150000D03*
X157430000Y-102610000D03*
X157430000Y-100070000D03*
X157430000Y-97530000D03*
X157430000Y-94990000D03*
X157430000Y-92450000D03*
X157430000Y-89910000D03*
D12*
X157430000Y-87370000D03*
%TD*%
D13*
%TO.C,J1*%
X146600000Y-127165000D03*
D14*
X146600000Y-124625000D03*
%TD*%
D10*
%TO.C,U1*%
X165250000Y-109530000D03*
X165250000Y-112070000D03*
X165250000Y-114610000D03*
X165250000Y-117150000D03*
X157630000Y-117150000D03*
X157630000Y-114610000D03*
X157630000Y-112070000D03*
D15*
X157630000Y-109530000D03*
%TD*%
D16*
%TO.C,RV1*%
X175550000Y-102825000D03*
X173010000Y-102825000D03*
D17*
X170470000Y-102825000D03*
%TD*%
D10*
%TO.C,R1*%
X152600000Y-118220000D03*
X152600000Y-110600000D03*
%TD*%
D18*
%TO.C,D10*%
X124835000Y-94875000D03*
D19*
X127375000Y-94875000D03*
%TD*%
D18*
%TO.C,D9*%
X149805000Y-91525000D03*
D19*
X152345000Y-91525000D03*
%TD*%
D18*
%TO.C,D7*%
X182635000Y-137075000D03*
D19*
X185175000Y-137075000D03*
%TD*%
%TO.C,D6*%
X174000000Y-92850000D03*
D18*
X171460000Y-92850000D03*
%TD*%
%TO.C,D5*%
X159725000Y-65450000D03*
D19*
X162265000Y-65450000D03*
%TD*%
D18*
%TO.C,D4*%
X138935000Y-134650000D03*
D19*
X141475000Y-134650000D03*
%TD*%
D18*
%TO.C,D3*%
X160085000Y-122625000D03*
D19*
X162625000Y-122625000D03*
%TD*%
D18*
%TO.C,D2*%
X174035000Y-111275000D03*
D19*
X176575000Y-111275000D03*
%TD*%
D18*
%TO.C,D1*%
X193985000Y-95225000D03*
D19*
X196525000Y-95225000D03*
%TD*%
D20*
%TO.C,C2*%
X169950000Y-117325000D03*
X174950000Y-117325000D03*
%TD*%
D15*
%TO.C,C1*%
X145600000Y-117725000D03*
D10*
X147600000Y-117725000D03*
%TD*%
D18*
%TO.C,D8*%
X144955000Y-110500000D03*
D19*
X147495000Y-110500000D03*
%TD*%
M02*
