%TF.GenerationSoftware,KiCad,Pcbnew,9.0.7*%
%TF.CreationDate,2026-03-16T19:58:19-04:00*%
%TF.ProjectId,StarLight,53746172-4c69-4676-9874-2e6b69636164,rev?*%
%TF.SameCoordinates,Original*%
%TF.FileFunction,Copper,L2,Bot*%
%TF.FilePolarity,Positive*%
%FSLAX46Y46*%
G04 Gerber Fmt 4.6, Leading zero omitted, Abs format (unit mm)*
G04 Created by KiCad (PCBNEW 9.0.7) date 2026-03-16 19:58:19*
%MOMM*%
%LPD*%
G01*
G04 APERTURE LIST*
G04 Aperture macros list*
%AMRoundRect*
0 Rectangle with rounded corners*
0 $1 Rounding radius*
0 $2 $3 $4 $5 $6 $7 $8 $9 X,Y pos of 4 corners*
0 Add a 4 corners polygon primitive as box body*
4,1,4,$2,$3,$4,$5,$6,$7,$8,$9,$2,$3,0*
0 Add four circle primitives for the rounded corners*
1,1,$1+$1,$2,$3*
1,1,$1+$1,$4,$5*
1,1,$1+$1,$6,$7*
1,1,$1+$1,$8,$9*
0 Add four rect primitives between the rounded corners*
20,1,$1+$1,$2,$3,$4,$5,0*
20,1,$1+$1,$4,$5,$6,$7,0*
20,1,$1+$1,$6,$7,$8,$9,0*
20,1,$1+$1,$8,$9,$2,$3,0*%
G04 Aperture macros list end*
%TA.AperFunction,ComponentPad*%
%ADD10C,1.600000*%
%TD*%
%TA.AperFunction,ComponentPad*%
%ADD11C,1.295400*%
%TD*%
%TA.AperFunction,ComponentPad*%
%ADD12R,1.295400X1.295400*%
%TD*%
%TA.AperFunction,ComponentPad*%
%ADD13C,1.700000*%
%TD*%
%TA.AperFunction,ComponentPad*%
%ADD14R,1.700000X1.700000*%
%TD*%
%TA.AperFunction,ComponentPad*%
%ADD15RoundRect,0.250000X-0.550000X-0.550000X0.550000X-0.550000X0.550000X0.550000X-0.550000X0.550000X0*%
%TD*%
%TA.AperFunction,ComponentPad*%
%ADD16C,1.650000*%
%TD*%
%TA.AperFunction,ComponentPad*%
%ADD17RoundRect,0.412500X-0.412500X-0.412500X0.412500X-0.412500X0.412500X0.412500X-0.412500X0.412500X0*%
%TD*%
%TA.AperFunction,ComponentPad*%
%ADD18R,1.800000X1.800000*%
%TD*%
%TA.AperFunction,ComponentPad*%
%ADD19C,1.800000*%
%TD*%
%TA.AperFunction,ComponentPad*%
%ADD20C,2.000000*%
%TD*%
%TA.AperFunction,Conductor*%
%ADD21C,0.200000*%
%TD*%
G04 APERTURE END LIST*
D10*
%TO.P,R2,2*%
%TO.N,GND*%
X142725000Y-98700000D03*
%TO.P,R2,1*%
%TO.N,Net-(D1-K)*%
X135105000Y-98700000D03*
%TD*%
D11*
%TO.P,U2,16,VDD*%
%TO.N,+5V*%
X165050000Y-87370000D03*
%TO.P,U2,15,Reset*%
%TO.N,GND*%
X165050000Y-89910000D03*
%TO.P,U2,14,CLK*%
%TO.N,OUT*%
X165050000Y-92450000D03*
%TO.P,U2,13,CKEN*%
%TO.N,GND*%
X165050000Y-94990000D03*
%TO.P,U2,12,Cout*%
%TO.N,unconnected-(U2-Cout-Pad12)*%
X165050000Y-97530000D03*
%TO.P,U2,11,Q9*%
%TO.N,Net-(D1-A)*%
X165050000Y-100070000D03*
%TO.P,U2,10,Q4*%
%TO.N,Net-(D6-A)*%
X165050000Y-102610000D03*
%TO.P,U2,9,Q8*%
%TO.N,Net-(D2-A)*%
X165050000Y-105150000D03*
%TO.P,U2,8,VSS*%
%TO.N,GND*%
X157430000Y-105150000D03*
%TO.P,U2,7,Q3*%
%TO.N,Net-(D7-A)*%
X157430000Y-102610000D03*
%TO.P,U2,6,Q7*%
%TO.N,Net-(D3-A)*%
X157430000Y-100070000D03*
%TO.P,U2,5,Q6*%
%TO.N,Net-(D4-A)*%
X157430000Y-97530000D03*
%TO.P,U2,4,Q2*%
%TO.N,Net-(D8-A)*%
X157430000Y-94990000D03*
%TO.P,U2,3,Q0*%
%TO.N,Net-(D10-A)*%
X157430000Y-92450000D03*
%TO.P,U2,2,Q1*%
%TO.N,Net-(D9-A)*%
X157430000Y-89910000D03*
D12*
%TO.P,U2,1,Q5*%
%TO.N,Net-(D5-A)*%
X157430000Y-87370000D03*
%TD*%
D13*
%TO.P,J1,2,Pin_2*%
%TO.N,GND*%
X146600000Y-127165000D03*
D14*
%TO.P,J1,1,Pin_1*%
%TO.N,+5V*%
X146600000Y-124625000D03*
%TD*%
D10*
%TO.P,U1,8,VCC*%
%TO.N,+5V*%
X165250000Y-109530000D03*
%TO.P,U1,7,DISCH*%
%TO.N,TR*%
X165250000Y-112070000D03*
%TO.P,U1,6,THRES*%
X165250000Y-114610000D03*
%TO.P,U1,5,CONT*%
%TO.N,Net-(U1-CONT)*%
X165250000Y-117150000D03*
%TO.P,U1,4,~{RST}*%
%TO.N,+5V*%
X157630000Y-117150000D03*
%TO.P,U1,3,OUT*%
%TO.N,OUT*%
X157630000Y-114610000D03*
%TO.P,U1,2,TRIG*%
%TO.N,TR*%
X157630000Y-112070000D03*
D15*
%TO.P,U1,1,GND*%
%TO.N,GND*%
X157630000Y-109530000D03*
%TD*%
D16*
%TO.P,RV1,3,3*%
%TO.N,TR*%
X175550000Y-102825000D03*
%TO.P,RV1,2,2*%
X173010000Y-102825000D03*
D17*
%TO.P,RV1,1,1*%
X170470000Y-102825000D03*
%TD*%
D10*
%TO.P,R1,1*%
%TO.N,+5V*%
X152600000Y-118220000D03*
%TO.P,R1,2*%
%TO.N,TR*%
X152600000Y-110600000D03*
%TD*%
D18*
%TO.P,D10,1,K*%
%TO.N,Net-(D1-K)*%
X124835000Y-94875000D03*
D19*
%TO.P,D10,2,A*%
%TO.N,Net-(D10-A)*%
X127375000Y-94875000D03*
%TD*%
D18*
%TO.P,D9,1,K*%
%TO.N,Net-(D1-K)*%
X149805000Y-91525000D03*
D19*
%TO.P,D9,2,A*%
%TO.N,Net-(D9-A)*%
X152345000Y-91525000D03*
%TD*%
D18*
%TO.P,D7,1,K*%
%TO.N,Net-(D1-K)*%
X182635000Y-137075000D03*
D19*
%TO.P,D7,2,A*%
%TO.N,Net-(D7-A)*%
X185175000Y-137075000D03*
%TD*%
%TO.P,D6,2,A*%
%TO.N,Net-(D6-A)*%
X174000000Y-92850000D03*
D18*
%TO.P,D6,1,K*%
%TO.N,Net-(D1-K)*%
X171460000Y-92850000D03*
%TD*%
%TO.P,D5,1,K*%
%TO.N,Net-(D1-K)*%
X159725000Y-65450000D03*
D19*
%TO.P,D5,2,A*%
%TO.N,Net-(D5-A)*%
X162265000Y-65450000D03*
%TD*%
D18*
%TO.P,D4,1,K*%
%TO.N,Net-(D1-K)*%
X138935000Y-134650000D03*
D19*
%TO.P,D4,2,A*%
%TO.N,Net-(D4-A)*%
X141475000Y-134650000D03*
%TD*%
D18*
%TO.P,D3,1,K*%
%TO.N,Net-(D1-K)*%
X160085000Y-122625000D03*
D19*
%TO.P,D3,2,A*%
%TO.N,Net-(D3-A)*%
X162625000Y-122625000D03*
%TD*%
D18*
%TO.P,D2,1,K*%
%TO.N,Net-(D1-K)*%
X174035000Y-111275000D03*
D19*
%TO.P,D2,2,A*%
%TO.N,Net-(D2-A)*%
X176575000Y-111275000D03*
%TD*%
D18*
%TO.P,D1,1,K*%
%TO.N,Net-(D1-K)*%
X193985000Y-95225000D03*
D19*
%TO.P,D1,2,A*%
%TO.N,Net-(D1-A)*%
X196525000Y-95225000D03*
%TD*%
D20*
%TO.P,C2,1*%
%TO.N,Net-(U1-CONT)*%
X169950000Y-117325000D03*
%TO.P,C2,2*%
%TO.N,GND*%
X174950000Y-117325000D03*
%TD*%
D15*
%TO.P,C1,1*%
%TO.N,TR*%
X145600000Y-117725000D03*
D10*
%TO.P,C1,2*%
%TO.N,GND*%
X147600000Y-117725000D03*
%TD*%
D18*
%TO.P,D8,1,K*%
%TO.N,Net-(D1-K)*%
X144955000Y-110500000D03*
D19*
%TO.P,D8,2,A*%
%TO.N,Net-(D8-A)*%
X147495000Y-110500000D03*
%TD*%
D21*
%TO.N,Net-(U1-CONT)*%
X165250000Y-117150000D02*
X169775000Y-117150000D01*
X169775000Y-117150000D02*
X169950000Y-117325000D01*
%TO.N,TR*%
X164866000Y-108429000D02*
X159425000Y-108429000D01*
X159425000Y-110275000D02*
X159425000Y-108429000D01*
X157630000Y-112070000D02*
X159425000Y-110275000D01*
%TO.N,+5V*%
X165250000Y-109530000D02*
X166381370Y-109530000D01*
X166381370Y-109530000D02*
X171596000Y-104315370D01*
X171596000Y-104315370D02*
X171596000Y-95388000D01*
X171596000Y-95388000D02*
X165998700Y-89790700D01*
X165998700Y-89790700D02*
X165998700Y-88318700D01*
X165998700Y-88318700D02*
X165050000Y-87370000D01*
X152600000Y-118220000D02*
X156560000Y-118220000D01*
X156560000Y-118220000D02*
X157630000Y-117150000D01*
%TO.N,TR*%
X145600000Y-117725000D02*
X145600000Y-117600000D01*
X145600000Y-117600000D02*
X152600000Y-110600000D01*
X165250000Y-114610000D02*
X165250000Y-112070000D01*
%TO.N,GND*%
X163525000Y-91435000D02*
X163525000Y-94675000D01*
X165050000Y-89910000D02*
X163525000Y-91435000D01*
X163840000Y-94990000D02*
X165050000Y-94990000D01*
X163525000Y-94675000D02*
X163840000Y-94990000D01*
X157430000Y-105150000D02*
X158378700Y-104201300D01*
X158378700Y-104201300D02*
X158378700Y-101661300D01*
X158378700Y-101661300D02*
X165050000Y-94990000D01*
X142725000Y-98700000D02*
X150980000Y-98700000D01*
X150980000Y-98700000D02*
X157430000Y-105150000D01*
X147600000Y-117725000D02*
X145449000Y-119876000D01*
X145449000Y-119876000D02*
X145449000Y-126014000D01*
X145449000Y-126014000D02*
X146600000Y-127165000D01*
X157630000Y-109530000D02*
X155795000Y-109530000D01*
X155795000Y-109530000D02*
X147600000Y-117725000D01*
%TO.N,TR*%
X175550000Y-102825000D02*
X175550000Y-104310000D01*
X175550000Y-104310000D02*
X165250000Y-114610000D01*
X173010000Y-102825000D02*
X173010000Y-104310000D01*
X173010000Y-104310000D02*
X165250000Y-112070000D01*
X170470000Y-102825000D02*
X164866000Y-108429000D01*
X159425000Y-108429000D02*
X154771000Y-108429000D01*
X154771000Y-108429000D02*
X152600000Y-110600000D01*
%TO.N,Net-(D10-A)*%
X127375000Y-94875000D02*
X155005000Y-94875000D01*
X155005000Y-94875000D02*
X157430000Y-92450000D01*
%TD*%
M02*
