M48
; DRILL file {KiCad 9.0.7} date 2026-03-16T19:58:28-0400
; FORMAT={-:-/ absolute / metric / decimal}
; #@! TF.CreationDate,2026-03-16T19:58:28-04:00
; #@! TF.GenerationSoftware,Kicad,Pcbnew,9.0.7
; #@! TF.FileFunction,Plated,1,2,PTH
FMAT,2
METRIC
; #@! TA.AperFunction,Plated,PTH,ComponentDrill
T1C0.787
; #@! TA.AperFunction,Plated,PTH,ComponentDrill
T2C0.800
; #@! TA.AperFunction,Plated,PTH,ComponentDrill
T3C0.850
; #@! TA.AperFunction,Plated,PTH,ComponentDrill
T4C0.900
; #@! TA.AperFunction,Plated,PTH,ComponentDrill
T5C1.000
%
G90
G05
T1
X157.43Y-87.37
X157.43Y-89.91
X157.43Y-92.45
X157.43Y-94.99
X157.43Y-97.53
X157.43Y-100.07
X157.43Y-102.61
X157.43Y-105.15
X165.05Y-87.37
X165.05Y-89.91
X165.05Y-92.45
X165.05Y-94.99
X165.05Y-97.53
X165.05Y-100.07
X165.05Y-102.61
X165.05Y-105.15
T2
X135.105Y-98.7
X142.725Y-98.7
X145.6Y-117.725
X147.6Y-117.725
X152.6Y-110.6
X152.6Y-118.22
X157.63Y-109.53
X157.63Y-112.07
X157.63Y-114.61
X157.63Y-117.15
X165.25Y-109.53
X165.25Y-112.07
X165.25Y-114.61
X165.25Y-117.15
T3
X170.47Y-102.825
X173.01Y-102.825
X175.55Y-102.825
T4
X124.835Y-94.875
X127.375Y-94.875
X138.935Y-134.65
X141.475Y-134.65
X144.955Y-110.5
X147.495Y-110.5
X149.805Y-91.525
X152.345Y-91.525
X159.725Y-65.45
X160.085Y-122.625
X162.265Y-65.45
X162.625Y-122.625
X171.46Y-92.85
X174.0Y-92.85
X174.035Y-111.275
X176.575Y-111.275
X182.635Y-137.075
X185.175Y-137.075
X193.985Y-95.225
X196.525Y-95.225
T5
X146.6Y-124.625
X146.6Y-127.165
X169.95Y-117.325
X174.95Y-117.325
M30
