%TF.GenerationSoftware,KiCad,Pcbnew,9.0.7*%
%TF.CreationDate,2026-03-16T19:58:20-04:00*%
%TF.ProjectId,StarLight,53746172-4c69-4676-9874-2e6b69636164,rev?*%
%TF.SameCoordinates,Original*%
%TF.FileFunction,Legend,Top*%
%TF.FilePolarity,Positive*%
%FSLAX46Y46*%
G04 Gerber Fmt 4.6, Leading zero omitted, Abs format (unit mm)*
G04 Created by KiCad (PCBNEW 9.0.7) date 2026-03-16 19:58:20*
%MOMM*%
%LPD*%
G01*
G04 APERTURE LIST*
%ADD10C,0.150000*%
%ADD11C,0.120000*%
%ADD12C,0.152400*%
G04 APERTURE END LIST*
D10*
X138748333Y-96784819D02*
X138415000Y-96308628D01*
X138176905Y-96784819D02*
X138176905Y-95784819D01*
X138176905Y-95784819D02*
X138557857Y-95784819D01*
X138557857Y-95784819D02*
X138653095Y-95832438D01*
X138653095Y-95832438D02*
X138700714Y-95880057D01*
X138700714Y-95880057D02*
X138748333Y-95975295D01*
X138748333Y-95975295D02*
X138748333Y-96118152D01*
X138748333Y-96118152D02*
X138700714Y-96213390D01*
X138700714Y-96213390D02*
X138653095Y-96261009D01*
X138653095Y-96261009D02*
X138557857Y-96308628D01*
X138557857Y-96308628D02*
X138176905Y-96308628D01*
X139129286Y-95880057D02*
X139176905Y-95832438D01*
X139176905Y-95832438D02*
X139272143Y-95784819D01*
X139272143Y-95784819D02*
X139510238Y-95784819D01*
X139510238Y-95784819D02*
X139605476Y-95832438D01*
X139605476Y-95832438D02*
X139653095Y-95880057D01*
X139653095Y-95880057D02*
X139700714Y-95975295D01*
X139700714Y-95975295D02*
X139700714Y-96070533D01*
X139700714Y-96070533D02*
X139653095Y-96213390D01*
X139653095Y-96213390D02*
X139081667Y-96784819D01*
X139081667Y-96784819D02*
X139700714Y-96784819D01*
X146266666Y-121699819D02*
X146266666Y-122414104D01*
X146266666Y-122414104D02*
X146219047Y-122556961D01*
X146219047Y-122556961D02*
X146123809Y-122652200D01*
X146123809Y-122652200D02*
X145980952Y-122699819D01*
X145980952Y-122699819D02*
X145885714Y-122699819D01*
X147266666Y-122699819D02*
X146695238Y-122699819D01*
X146980952Y-122699819D02*
X146980952Y-121699819D01*
X146980952Y-121699819D02*
X146885714Y-121842676D01*
X146885714Y-121842676D02*
X146790476Y-121937914D01*
X146790476Y-121937914D02*
X146695238Y-121985533D01*
X160678095Y-106654819D02*
X160678095Y-107464342D01*
X160678095Y-107464342D02*
X160725714Y-107559580D01*
X160725714Y-107559580D02*
X160773333Y-107607200D01*
X160773333Y-107607200D02*
X160868571Y-107654819D01*
X160868571Y-107654819D02*
X161059047Y-107654819D01*
X161059047Y-107654819D02*
X161154285Y-107607200D01*
X161154285Y-107607200D02*
X161201904Y-107559580D01*
X161201904Y-107559580D02*
X161249523Y-107464342D01*
X161249523Y-107464342D02*
X161249523Y-106654819D01*
X162249523Y-107654819D02*
X161678095Y-107654819D01*
X161963809Y-107654819D02*
X161963809Y-106654819D01*
X161963809Y-106654819D02*
X161868571Y-106797676D01*
X161868571Y-106797676D02*
X161773333Y-106892914D01*
X161773333Y-106892914D02*
X161678095Y-106940533D01*
X124890714Y-92369819D02*
X124890714Y-91369819D01*
X124890714Y-91369819D02*
X125128809Y-91369819D01*
X125128809Y-91369819D02*
X125271666Y-91417438D01*
X125271666Y-91417438D02*
X125366904Y-91512676D01*
X125366904Y-91512676D02*
X125414523Y-91607914D01*
X125414523Y-91607914D02*
X125462142Y-91798390D01*
X125462142Y-91798390D02*
X125462142Y-91941247D01*
X125462142Y-91941247D02*
X125414523Y-92131723D01*
X125414523Y-92131723D02*
X125366904Y-92226961D01*
X125366904Y-92226961D02*
X125271666Y-92322200D01*
X125271666Y-92322200D02*
X125128809Y-92369819D01*
X125128809Y-92369819D02*
X124890714Y-92369819D01*
X126414523Y-92369819D02*
X125843095Y-92369819D01*
X126128809Y-92369819D02*
X126128809Y-91369819D01*
X126128809Y-91369819D02*
X126033571Y-91512676D01*
X126033571Y-91512676D02*
X125938333Y-91607914D01*
X125938333Y-91607914D02*
X125843095Y-91655533D01*
X127033571Y-91369819D02*
X127128809Y-91369819D01*
X127128809Y-91369819D02*
X127224047Y-91417438D01*
X127224047Y-91417438D02*
X127271666Y-91465057D01*
X127271666Y-91465057D02*
X127319285Y-91560295D01*
X127319285Y-91560295D02*
X127366904Y-91750771D01*
X127366904Y-91750771D02*
X127366904Y-91988866D01*
X127366904Y-91988866D02*
X127319285Y-92179342D01*
X127319285Y-92179342D02*
X127271666Y-92274580D01*
X127271666Y-92274580D02*
X127224047Y-92322200D01*
X127224047Y-92322200D02*
X127128809Y-92369819D01*
X127128809Y-92369819D02*
X127033571Y-92369819D01*
X127033571Y-92369819D02*
X126938333Y-92322200D01*
X126938333Y-92322200D02*
X126890714Y-92274580D01*
X126890714Y-92274580D02*
X126843095Y-92179342D01*
X126843095Y-92179342D02*
X126795476Y-91988866D01*
X126795476Y-91988866D02*
X126795476Y-91750771D01*
X126795476Y-91750771D02*
X126843095Y-91560295D01*
X126843095Y-91560295D02*
X126890714Y-91465057D01*
X126890714Y-91465057D02*
X126938333Y-91417438D01*
X126938333Y-91417438D02*
X127033571Y-91369819D01*
X150336905Y-89019819D02*
X150336905Y-88019819D01*
X150336905Y-88019819D02*
X150575000Y-88019819D01*
X150575000Y-88019819D02*
X150717857Y-88067438D01*
X150717857Y-88067438D02*
X150813095Y-88162676D01*
X150813095Y-88162676D02*
X150860714Y-88257914D01*
X150860714Y-88257914D02*
X150908333Y-88448390D01*
X150908333Y-88448390D02*
X150908333Y-88591247D01*
X150908333Y-88591247D02*
X150860714Y-88781723D01*
X150860714Y-88781723D02*
X150813095Y-88876961D01*
X150813095Y-88876961D02*
X150717857Y-88972200D01*
X150717857Y-88972200D02*
X150575000Y-89019819D01*
X150575000Y-89019819D02*
X150336905Y-89019819D01*
X151384524Y-89019819D02*
X151575000Y-89019819D01*
X151575000Y-89019819D02*
X151670238Y-88972200D01*
X151670238Y-88972200D02*
X151717857Y-88924580D01*
X151717857Y-88924580D02*
X151813095Y-88781723D01*
X151813095Y-88781723D02*
X151860714Y-88591247D01*
X151860714Y-88591247D02*
X151860714Y-88210295D01*
X151860714Y-88210295D02*
X151813095Y-88115057D01*
X151813095Y-88115057D02*
X151765476Y-88067438D01*
X151765476Y-88067438D02*
X151670238Y-88019819D01*
X151670238Y-88019819D02*
X151479762Y-88019819D01*
X151479762Y-88019819D02*
X151384524Y-88067438D01*
X151384524Y-88067438D02*
X151336905Y-88115057D01*
X151336905Y-88115057D02*
X151289286Y-88210295D01*
X151289286Y-88210295D02*
X151289286Y-88448390D01*
X151289286Y-88448390D02*
X151336905Y-88543628D01*
X151336905Y-88543628D02*
X151384524Y-88591247D01*
X151384524Y-88591247D02*
X151479762Y-88638866D01*
X151479762Y-88638866D02*
X151670238Y-88638866D01*
X151670238Y-88638866D02*
X151765476Y-88591247D01*
X151765476Y-88591247D02*
X151813095Y-88543628D01*
X151813095Y-88543628D02*
X151860714Y-88448390D01*
X183166905Y-134569819D02*
X183166905Y-133569819D01*
X183166905Y-133569819D02*
X183405000Y-133569819D01*
X183405000Y-133569819D02*
X183547857Y-133617438D01*
X183547857Y-133617438D02*
X183643095Y-133712676D01*
X183643095Y-133712676D02*
X183690714Y-133807914D01*
X183690714Y-133807914D02*
X183738333Y-133998390D01*
X183738333Y-133998390D02*
X183738333Y-134141247D01*
X183738333Y-134141247D02*
X183690714Y-134331723D01*
X183690714Y-134331723D02*
X183643095Y-134426961D01*
X183643095Y-134426961D02*
X183547857Y-134522200D01*
X183547857Y-134522200D02*
X183405000Y-134569819D01*
X183405000Y-134569819D02*
X183166905Y-134569819D01*
X184071667Y-133569819D02*
X184738333Y-133569819D01*
X184738333Y-133569819D02*
X184309762Y-134569819D01*
X171186905Y-90279819D02*
X171186905Y-89279819D01*
X171186905Y-89279819D02*
X171425000Y-89279819D01*
X171425000Y-89279819D02*
X171567857Y-89327438D01*
X171567857Y-89327438D02*
X171663095Y-89422676D01*
X171663095Y-89422676D02*
X171710714Y-89517914D01*
X171710714Y-89517914D02*
X171758333Y-89708390D01*
X171758333Y-89708390D02*
X171758333Y-89851247D01*
X171758333Y-89851247D02*
X171710714Y-90041723D01*
X171710714Y-90041723D02*
X171663095Y-90136961D01*
X171663095Y-90136961D02*
X171567857Y-90232200D01*
X171567857Y-90232200D02*
X171425000Y-90279819D01*
X171425000Y-90279819D02*
X171186905Y-90279819D01*
X172615476Y-89279819D02*
X172425000Y-89279819D01*
X172425000Y-89279819D02*
X172329762Y-89327438D01*
X172329762Y-89327438D02*
X172282143Y-89375057D01*
X172282143Y-89375057D02*
X172186905Y-89517914D01*
X172186905Y-89517914D02*
X172139286Y-89708390D01*
X172139286Y-89708390D02*
X172139286Y-90089342D01*
X172139286Y-90089342D02*
X172186905Y-90184580D01*
X172186905Y-90184580D02*
X172234524Y-90232200D01*
X172234524Y-90232200D02*
X172329762Y-90279819D01*
X172329762Y-90279819D02*
X172520238Y-90279819D01*
X172520238Y-90279819D02*
X172615476Y-90232200D01*
X172615476Y-90232200D02*
X172663095Y-90184580D01*
X172663095Y-90184580D02*
X172710714Y-90089342D01*
X172710714Y-90089342D02*
X172710714Y-89851247D01*
X172710714Y-89851247D02*
X172663095Y-89756009D01*
X172663095Y-89756009D02*
X172615476Y-89708390D01*
X172615476Y-89708390D02*
X172520238Y-89660771D01*
X172520238Y-89660771D02*
X172329762Y-89660771D01*
X172329762Y-89660771D02*
X172234524Y-89708390D01*
X172234524Y-89708390D02*
X172186905Y-89756009D01*
X172186905Y-89756009D02*
X172139286Y-89851247D01*
X160256905Y-62944819D02*
X160256905Y-61944819D01*
X160256905Y-61944819D02*
X160495000Y-61944819D01*
X160495000Y-61944819D02*
X160637857Y-61992438D01*
X160637857Y-61992438D02*
X160733095Y-62087676D01*
X160733095Y-62087676D02*
X160780714Y-62182914D01*
X160780714Y-62182914D02*
X160828333Y-62373390D01*
X160828333Y-62373390D02*
X160828333Y-62516247D01*
X160828333Y-62516247D02*
X160780714Y-62706723D01*
X160780714Y-62706723D02*
X160733095Y-62801961D01*
X160733095Y-62801961D02*
X160637857Y-62897200D01*
X160637857Y-62897200D02*
X160495000Y-62944819D01*
X160495000Y-62944819D02*
X160256905Y-62944819D01*
X161733095Y-61944819D02*
X161256905Y-61944819D01*
X161256905Y-61944819D02*
X161209286Y-62421009D01*
X161209286Y-62421009D02*
X161256905Y-62373390D01*
X161256905Y-62373390D02*
X161352143Y-62325771D01*
X161352143Y-62325771D02*
X161590238Y-62325771D01*
X161590238Y-62325771D02*
X161685476Y-62373390D01*
X161685476Y-62373390D02*
X161733095Y-62421009D01*
X161733095Y-62421009D02*
X161780714Y-62516247D01*
X161780714Y-62516247D02*
X161780714Y-62754342D01*
X161780714Y-62754342D02*
X161733095Y-62849580D01*
X161733095Y-62849580D02*
X161685476Y-62897200D01*
X161685476Y-62897200D02*
X161590238Y-62944819D01*
X161590238Y-62944819D02*
X161352143Y-62944819D01*
X161352143Y-62944819D02*
X161256905Y-62897200D01*
X161256905Y-62897200D02*
X161209286Y-62849580D01*
X138336905Y-132029819D02*
X138336905Y-131029819D01*
X138336905Y-131029819D02*
X138575000Y-131029819D01*
X138575000Y-131029819D02*
X138717857Y-131077438D01*
X138717857Y-131077438D02*
X138813095Y-131172676D01*
X138813095Y-131172676D02*
X138860714Y-131267914D01*
X138860714Y-131267914D02*
X138908333Y-131458390D01*
X138908333Y-131458390D02*
X138908333Y-131601247D01*
X138908333Y-131601247D02*
X138860714Y-131791723D01*
X138860714Y-131791723D02*
X138813095Y-131886961D01*
X138813095Y-131886961D02*
X138717857Y-131982200D01*
X138717857Y-131982200D02*
X138575000Y-132029819D01*
X138575000Y-132029819D02*
X138336905Y-132029819D01*
X139765476Y-131363152D02*
X139765476Y-132029819D01*
X139527381Y-130982200D02*
X139289286Y-131696485D01*
X139289286Y-131696485D02*
X139908333Y-131696485D01*
X174566905Y-108769819D02*
X174566905Y-107769819D01*
X174566905Y-107769819D02*
X174805000Y-107769819D01*
X174805000Y-107769819D02*
X174947857Y-107817438D01*
X174947857Y-107817438D02*
X175043095Y-107912676D01*
X175043095Y-107912676D02*
X175090714Y-108007914D01*
X175090714Y-108007914D02*
X175138333Y-108198390D01*
X175138333Y-108198390D02*
X175138333Y-108341247D01*
X175138333Y-108341247D02*
X175090714Y-108531723D01*
X175090714Y-108531723D02*
X175043095Y-108626961D01*
X175043095Y-108626961D02*
X174947857Y-108722200D01*
X174947857Y-108722200D02*
X174805000Y-108769819D01*
X174805000Y-108769819D02*
X174566905Y-108769819D01*
X175519286Y-107865057D02*
X175566905Y-107817438D01*
X175566905Y-107817438D02*
X175662143Y-107769819D01*
X175662143Y-107769819D02*
X175900238Y-107769819D01*
X175900238Y-107769819D02*
X175995476Y-107817438D01*
X175995476Y-107817438D02*
X176043095Y-107865057D01*
X176043095Y-107865057D02*
X176090714Y-107960295D01*
X176090714Y-107960295D02*
X176090714Y-108055533D01*
X176090714Y-108055533D02*
X176043095Y-108198390D01*
X176043095Y-108198390D02*
X175471667Y-108769819D01*
X175471667Y-108769819D02*
X176090714Y-108769819D01*
X194516905Y-92719819D02*
X194516905Y-91719819D01*
X194516905Y-91719819D02*
X194755000Y-91719819D01*
X194755000Y-91719819D02*
X194897857Y-91767438D01*
X194897857Y-91767438D02*
X194993095Y-91862676D01*
X194993095Y-91862676D02*
X195040714Y-91957914D01*
X195040714Y-91957914D02*
X195088333Y-92148390D01*
X195088333Y-92148390D02*
X195088333Y-92291247D01*
X195088333Y-92291247D02*
X195040714Y-92481723D01*
X195040714Y-92481723D02*
X194993095Y-92576961D01*
X194993095Y-92576961D02*
X194897857Y-92672200D01*
X194897857Y-92672200D02*
X194755000Y-92719819D01*
X194755000Y-92719819D02*
X194516905Y-92719819D01*
X196040714Y-92719819D02*
X195469286Y-92719819D01*
X195755000Y-92719819D02*
X195755000Y-91719819D01*
X195755000Y-91719819D02*
X195659762Y-91862676D01*
X195659762Y-91862676D02*
X195564524Y-91957914D01*
X195564524Y-91957914D02*
X195469286Y-92005533D01*
X172333333Y-120184580D02*
X172285714Y-120232200D01*
X172285714Y-120232200D02*
X172142857Y-120279819D01*
X172142857Y-120279819D02*
X172047619Y-120279819D01*
X172047619Y-120279819D02*
X171904762Y-120232200D01*
X171904762Y-120232200D02*
X171809524Y-120136961D01*
X171809524Y-120136961D02*
X171761905Y-120041723D01*
X171761905Y-120041723D02*
X171714286Y-119851247D01*
X171714286Y-119851247D02*
X171714286Y-119708390D01*
X171714286Y-119708390D02*
X171761905Y-119517914D01*
X171761905Y-119517914D02*
X171809524Y-119422676D01*
X171809524Y-119422676D02*
X171904762Y-119327438D01*
X171904762Y-119327438D02*
X172047619Y-119279819D01*
X172047619Y-119279819D02*
X172142857Y-119279819D01*
X172142857Y-119279819D02*
X172285714Y-119327438D01*
X172285714Y-119327438D02*
X172333333Y-119375057D01*
X172714286Y-119375057D02*
X172761905Y-119327438D01*
X172761905Y-119327438D02*
X172857143Y-119279819D01*
X172857143Y-119279819D02*
X173095238Y-119279819D01*
X173095238Y-119279819D02*
X173190476Y-119327438D01*
X173190476Y-119327438D02*
X173238095Y-119375057D01*
X173238095Y-119375057D02*
X173285714Y-119470295D01*
X173285714Y-119470295D02*
X173285714Y-119565533D01*
X173285714Y-119565533D02*
X173238095Y-119708390D01*
X173238095Y-119708390D02*
X172666667Y-120279819D01*
X172666667Y-120279819D02*
X173285714Y-120279819D01*
X143658333Y-120484580D02*
X143610714Y-120532200D01*
X143610714Y-120532200D02*
X143467857Y-120579819D01*
X143467857Y-120579819D02*
X143372619Y-120579819D01*
X143372619Y-120579819D02*
X143229762Y-120532200D01*
X143229762Y-120532200D02*
X143134524Y-120436961D01*
X143134524Y-120436961D02*
X143086905Y-120341723D01*
X143086905Y-120341723D02*
X143039286Y-120151247D01*
X143039286Y-120151247D02*
X143039286Y-120008390D01*
X143039286Y-120008390D02*
X143086905Y-119817914D01*
X143086905Y-119817914D02*
X143134524Y-119722676D01*
X143134524Y-119722676D02*
X143229762Y-119627438D01*
X143229762Y-119627438D02*
X143372619Y-119579819D01*
X143372619Y-119579819D02*
X143467857Y-119579819D01*
X143467857Y-119579819D02*
X143610714Y-119627438D01*
X143610714Y-119627438D02*
X143658333Y-119675057D01*
X144610714Y-120579819D02*
X144039286Y-120579819D01*
X144325000Y-120579819D02*
X144325000Y-119579819D01*
X144325000Y-119579819D02*
X144229762Y-119722676D01*
X144229762Y-119722676D02*
X144134524Y-119817914D01*
X144134524Y-119817914D02*
X144039286Y-119865533D01*
X145486905Y-107994819D02*
X145486905Y-106994819D01*
X145486905Y-106994819D02*
X145725000Y-106994819D01*
X145725000Y-106994819D02*
X145867857Y-107042438D01*
X145867857Y-107042438D02*
X145963095Y-107137676D01*
X145963095Y-107137676D02*
X146010714Y-107232914D01*
X146010714Y-107232914D02*
X146058333Y-107423390D01*
X146058333Y-107423390D02*
X146058333Y-107566247D01*
X146058333Y-107566247D02*
X146010714Y-107756723D01*
X146010714Y-107756723D02*
X145963095Y-107851961D01*
X145963095Y-107851961D02*
X145867857Y-107947200D01*
X145867857Y-107947200D02*
X145725000Y-107994819D01*
X145725000Y-107994819D02*
X145486905Y-107994819D01*
X146629762Y-107423390D02*
X146534524Y-107375771D01*
X146534524Y-107375771D02*
X146486905Y-107328152D01*
X146486905Y-107328152D02*
X146439286Y-107232914D01*
X146439286Y-107232914D02*
X146439286Y-107185295D01*
X146439286Y-107185295D02*
X146486905Y-107090057D01*
X146486905Y-107090057D02*
X146534524Y-107042438D01*
X146534524Y-107042438D02*
X146629762Y-106994819D01*
X146629762Y-106994819D02*
X146820238Y-106994819D01*
X146820238Y-106994819D02*
X146915476Y-107042438D01*
X146915476Y-107042438D02*
X146963095Y-107090057D01*
X146963095Y-107090057D02*
X147010714Y-107185295D01*
X147010714Y-107185295D02*
X147010714Y-107232914D01*
X147010714Y-107232914D02*
X146963095Y-107328152D01*
X146963095Y-107328152D02*
X146915476Y-107375771D01*
X146915476Y-107375771D02*
X146820238Y-107423390D01*
X146820238Y-107423390D02*
X146629762Y-107423390D01*
X146629762Y-107423390D02*
X146534524Y-107471009D01*
X146534524Y-107471009D02*
X146486905Y-107518628D01*
X146486905Y-107518628D02*
X146439286Y-107613866D01*
X146439286Y-107613866D02*
X146439286Y-107804342D01*
X146439286Y-107804342D02*
X146486905Y-107899580D01*
X146486905Y-107899580D02*
X146534524Y-107947200D01*
X146534524Y-107947200D02*
X146629762Y-107994819D01*
X146629762Y-107994819D02*
X146820238Y-107994819D01*
X146820238Y-107994819D02*
X146915476Y-107947200D01*
X146915476Y-107947200D02*
X146963095Y-107899580D01*
X146963095Y-107899580D02*
X147010714Y-107804342D01*
X147010714Y-107804342D02*
X147010714Y-107613866D01*
X147010714Y-107613866D02*
X146963095Y-107518628D01*
X146963095Y-107518628D02*
X146915476Y-107471009D01*
X146915476Y-107471009D02*
X146820238Y-107423390D01*
D11*
%TO.C,R2*%
X142185000Y-100070000D02*
X142185000Y-99740000D01*
X142185000Y-97330000D02*
X142185000Y-97660000D01*
X135645000Y-100070000D02*
X142185000Y-100070000D01*
X135645000Y-99740000D02*
X135645000Y-100070000D01*
X135645000Y-97660000D02*
X135645000Y-97330000D01*
X135645000Y-97330000D02*
X142185000Y-97330000D01*
D12*
%TO.C,U2*%
X164542000Y-89071431D02*
X164542000Y-88208569D01*
X164542000Y-91611431D02*
X164542000Y-90748569D01*
X164542000Y-94151431D02*
X164542000Y-93288569D01*
X164542000Y-96691431D02*
X164542000Y-95828569D01*
X164542000Y-99231431D02*
X164542000Y-98368569D01*
X164542000Y-101771431D02*
X164542000Y-100908569D01*
X157938000Y-103448569D02*
X157938000Y-104311431D01*
X157938000Y-100908569D02*
X157938000Y-101771431D01*
X157938000Y-98368569D02*
X157938000Y-99231431D01*
X157938000Y-95828569D02*
X157938000Y-96691431D01*
X157938000Y-93288569D02*
X157938000Y-94151431D01*
X157938000Y-90748569D02*
X157938000Y-91611431D01*
X161544800Y-86417500D02*
G75*
G02*
X160935200Y-86417500I-304800J0D01*
G01*
X157938000Y-88350440D02*
X157938000Y-89071431D01*
X164542000Y-86417500D02*
X158211165Y-86417500D01*
X164542000Y-104311431D02*
X164542000Y-103448569D01*
X157938000Y-106102500D02*
X164542000Y-106102500D01*
D11*
%TO.C,J1*%
X147980000Y-125895000D02*
X147980000Y-128545000D01*
X145220000Y-128545000D02*
X147980000Y-128545000D01*
X145220000Y-125895000D02*
X147980000Y-125895000D01*
X145220000Y-125895000D02*
X145220000Y-128545000D01*
X145220000Y-124625000D02*
X145220000Y-123245000D01*
X145220000Y-123245000D02*
X146600000Y-123245000D01*
%TO.C,U1*%
X162440000Y-108200000D02*
G75*
G02*
X160440000Y-108200000I-1000000J0D01*
G01*
X164090000Y-118480000D02*
X164090000Y-108200000D01*
X164090000Y-108200000D02*
X162440000Y-108200000D01*
X160440000Y-108200000D02*
X158790000Y-108200000D01*
X158790000Y-118480000D02*
X164090000Y-118480000D01*
X158790000Y-108200000D02*
X158790000Y-118480000D01*
%TO.C,RV1*%
X170470000Y-100215000D02*
X170230000Y-99885000D01*
X170710000Y-99885000D01*
X170470000Y-100215000D01*
G36*
X170470000Y-100215000D02*
G01*
X170230000Y-99885000D01*
X170710000Y-99885000D01*
X170470000Y-100215000D01*
G37*
X177970000Y-100215000D02*
X177970000Y-105435000D01*
X170870000Y-100215000D02*
X177970000Y-100215000D01*
X168050000Y-105435000D02*
X177970000Y-105435000D01*
X168050000Y-100215000D02*
X170170000Y-100215000D01*
X168050000Y-100215000D02*
X168050000Y-105435000D01*
%TO.C,R1*%
X151230000Y-117680000D02*
X151230000Y-111140000D01*
X151560000Y-117680000D02*
X151230000Y-117680000D01*
X153640000Y-117680000D02*
X153970000Y-117680000D01*
X153970000Y-117680000D02*
X153970000Y-111140000D01*
X151230000Y-111140000D02*
X151560000Y-111140000D01*
X153970000Y-111140000D02*
X153640000Y-111140000D01*
%TO.C,D10*%
X124545000Y-93639000D02*
X124545000Y-93795000D01*
X124545000Y-95955000D02*
X124545000Y-96111000D01*
X124545000Y-93639484D02*
G75*
G02*
X127776437Y-93795000I1560000J-1235516D01*
G01*
X125064039Y-93795000D02*
G75*
G02*
X127145961Y-93795000I1040961J-1080000D01*
G01*
X127145961Y-95955000D02*
G75*
G02*
X125064039Y-95955000I-1040961J1080000D01*
G01*
X127776437Y-95955000D02*
G75*
G02*
X124545000Y-96110516I-1671437J1080000D01*
G01*
%TO.C,D9*%
X149515000Y-90289000D02*
X149515000Y-90445000D01*
X149515000Y-92605000D02*
X149515000Y-92761000D01*
X149515000Y-90289484D02*
G75*
G02*
X152746437Y-90445000I1560000J-1235516D01*
G01*
X150034039Y-90445000D02*
G75*
G02*
X152115961Y-90445000I1040961J-1080000D01*
G01*
X152115961Y-92605000D02*
G75*
G02*
X150034039Y-92605000I-1040961J1080000D01*
G01*
X152746437Y-92605000D02*
G75*
G02*
X149515000Y-92760516I-1671437J1080000D01*
G01*
%TO.C,D7*%
X182345000Y-135839000D02*
X182345000Y-135995000D01*
X182345000Y-138155000D02*
X182345000Y-138311000D01*
X182345000Y-135839484D02*
G75*
G02*
X185576437Y-135995000I1560000J-1235516D01*
G01*
X182864039Y-135995000D02*
G75*
G02*
X184945961Y-135995000I1040961J-1080000D01*
G01*
X184945961Y-138155000D02*
G75*
G02*
X182864039Y-138155000I-1040961J1080000D01*
G01*
X185576437Y-138155000D02*
G75*
G02*
X182345000Y-138310516I-1671437J1080000D01*
G01*
%TO.C,D6*%
X174401437Y-93930000D02*
G75*
G02*
X171170000Y-94085516I-1671437J1080000D01*
G01*
X173770961Y-93930000D02*
G75*
G02*
X171689039Y-93930000I-1040961J1080000D01*
G01*
X171689039Y-91770000D02*
G75*
G02*
X173770961Y-91770000I1040961J-1080000D01*
G01*
X171170000Y-91614484D02*
G75*
G02*
X174401437Y-91770000I1560000J-1235516D01*
G01*
X171170000Y-93930000D02*
X171170000Y-94086000D01*
X171170000Y-91614000D02*
X171170000Y-91770000D01*
%TO.C,D5*%
X159435000Y-64214000D02*
X159435000Y-64370000D01*
X159435000Y-66530000D02*
X159435000Y-66686000D01*
X159435000Y-64214484D02*
G75*
G02*
X162666437Y-64370000I1560000J-1235516D01*
G01*
X159954039Y-64370000D02*
G75*
G02*
X162035961Y-64370000I1040961J-1080000D01*
G01*
X162035961Y-66530000D02*
G75*
G02*
X159954039Y-66530000I-1040961J1080000D01*
G01*
X162666437Y-66530000D02*
G75*
G02*
X159435000Y-66685516I-1671437J1080000D01*
G01*
%TO.C,D4*%
X138645000Y-133414000D02*
X138645000Y-133570000D01*
X138645000Y-135730000D02*
X138645000Y-135886000D01*
X138645000Y-133414484D02*
G75*
G02*
X141876437Y-133570000I1560000J-1235516D01*
G01*
X139164039Y-133570000D02*
G75*
G02*
X141245961Y-133570000I1040961J-1080000D01*
G01*
X141245961Y-135730000D02*
G75*
G02*
X139164039Y-135730000I-1040961J1080000D01*
G01*
X141876437Y-135730000D02*
G75*
G02*
X138645000Y-135885516I-1671437J1080000D01*
G01*
%TO.C,D3*%
X159795000Y-121389000D02*
X159795000Y-121545000D01*
X159795000Y-123705000D02*
X159795000Y-123861000D01*
X159795000Y-121389484D02*
G75*
G02*
X163026437Y-121545000I1560000J-1235516D01*
G01*
X160314039Y-121545000D02*
G75*
G02*
X162395961Y-121545000I1040961J-1080000D01*
G01*
X162395961Y-123705000D02*
G75*
G02*
X160314039Y-123705000I-1040961J1080000D01*
G01*
X163026437Y-123705000D02*
G75*
G02*
X159795000Y-123860516I-1671437J1080000D01*
G01*
%TO.C,D2*%
X173745000Y-110039000D02*
X173745000Y-110195000D01*
X173745000Y-112355000D02*
X173745000Y-112511000D01*
X173745000Y-110039484D02*
G75*
G02*
X176976437Y-110195000I1560000J-1235516D01*
G01*
X174264039Y-110195000D02*
G75*
G02*
X176345961Y-110195000I1040961J-1080000D01*
G01*
X176345961Y-112355000D02*
G75*
G02*
X174264039Y-112355000I-1040961J1080000D01*
G01*
X176976437Y-112355000D02*
G75*
G02*
X173745000Y-112510516I-1671437J1080000D01*
G01*
%TO.C,D1*%
X193695000Y-93989000D02*
X193695000Y-94145000D01*
X193695000Y-96305000D02*
X193695000Y-96461000D01*
X193695000Y-93989484D02*
G75*
G02*
X196926437Y-94145000I1560000J-1235516D01*
G01*
X194214039Y-94145000D02*
G75*
G02*
X196295961Y-94145000I1040961J-1080000D01*
G01*
X196295961Y-96305000D02*
G75*
G02*
X194214039Y-96305000I-1040961J1080000D01*
G01*
X196926437Y-96305000D02*
G75*
G02*
X193695000Y-96460516I-1671437J1080000D01*
G01*
%TO.C,C2*%
X168580000Y-115955000D02*
X176320000Y-115955000D01*
X168580000Y-118695000D02*
X168580000Y-115955000D01*
X176320000Y-115955000D02*
X176320000Y-118695000D01*
X176320000Y-118695000D02*
X168580000Y-118695000D01*
%TO.C,C1*%
X143795225Y-116250000D02*
X144295225Y-116250000D01*
X144045225Y-116000000D02*
X144045225Y-116500000D01*
X146600000Y-115145000D02*
X146600000Y-116685000D01*
X146600000Y-118765000D02*
X146600000Y-120305000D01*
X146640000Y-115145000D02*
X146640000Y-116685000D01*
X146640000Y-118765000D02*
X146640000Y-120305000D01*
X146680000Y-115146000D02*
X146680000Y-116685000D01*
X146680000Y-118765000D02*
X146680000Y-120304000D01*
X146720000Y-115148000D02*
X146720000Y-116685000D01*
X146720000Y-118765000D02*
X146720000Y-120302000D01*
X146760000Y-115150000D02*
X146760000Y-116685000D01*
X146760000Y-118765000D02*
X146760000Y-120300000D01*
X146800000Y-115153000D02*
X146800000Y-116685000D01*
X146800000Y-118765000D02*
X146800000Y-120297000D01*
X146840000Y-115156000D02*
X146840000Y-116685000D01*
X146840000Y-118765000D02*
X146840000Y-120294000D01*
X146880000Y-115160000D02*
X146880000Y-116685000D01*
X146880000Y-118765000D02*
X146880000Y-120290000D01*
X146920000Y-115165000D02*
X146920000Y-116685000D01*
X146920000Y-118765000D02*
X146920000Y-120285000D01*
X146960000Y-115170000D02*
X146960000Y-116685000D01*
X146960000Y-118765000D02*
X146960000Y-120280000D01*
X147000000Y-115176000D02*
X147000000Y-116685000D01*
X147000000Y-118765000D02*
X147000000Y-120274000D01*
X147040000Y-115182000D02*
X147040000Y-116685000D01*
X147040000Y-118765000D02*
X147040000Y-120268000D01*
X147080000Y-115189000D02*
X147080000Y-116685000D01*
X147080000Y-118765000D02*
X147080000Y-120261000D01*
X147120000Y-115197000D02*
X147120000Y-116685000D01*
X147120000Y-118765000D02*
X147120000Y-120253000D01*
X147160000Y-115206000D02*
X147160000Y-116685000D01*
X147160000Y-118765000D02*
X147160000Y-120244000D01*
X147200000Y-115215000D02*
X147200000Y-116685000D01*
X147200000Y-118765000D02*
X147200000Y-120235000D01*
X147240000Y-115224000D02*
X147240000Y-116685000D01*
X147240000Y-118765000D02*
X147240000Y-120226000D01*
X147280000Y-115235000D02*
X147280000Y-116685000D01*
X147280000Y-118765000D02*
X147280000Y-120215000D01*
X147320000Y-115246000D02*
X147320000Y-116685000D01*
X147320000Y-118765000D02*
X147320000Y-120204000D01*
X147360000Y-115258000D02*
X147360000Y-116685000D01*
X147360000Y-118765000D02*
X147360000Y-120192000D01*
X147400000Y-115270000D02*
X147400000Y-116685000D01*
X147400000Y-118765000D02*
X147400000Y-120180000D01*
X147440000Y-115283000D02*
X147440000Y-116685000D01*
X147440000Y-118765000D02*
X147440000Y-120167000D01*
X147480000Y-115297000D02*
X147480000Y-116685000D01*
X147480000Y-118765000D02*
X147480000Y-120153000D01*
X147520000Y-115312000D02*
X147520000Y-116685000D01*
X147520000Y-118765000D02*
X147520000Y-120138000D01*
X147560000Y-115327000D02*
X147560000Y-116685000D01*
X147560000Y-118765000D02*
X147560000Y-120123000D01*
X147600000Y-115343000D02*
X147600000Y-116685000D01*
X147600000Y-118765000D02*
X147600000Y-120107000D01*
X147640000Y-115360000D02*
X147640000Y-116685000D01*
X147640000Y-118765000D02*
X147640000Y-120090000D01*
X147680000Y-115378000D02*
X147680000Y-116685000D01*
X147680000Y-118765000D02*
X147680000Y-120072000D01*
X147720000Y-115396000D02*
X147720000Y-116685000D01*
X147720000Y-118765000D02*
X147720000Y-120054000D01*
X147760000Y-115416000D02*
X147760000Y-116685000D01*
X147760000Y-118765000D02*
X147760000Y-120034000D01*
X147800000Y-115436000D02*
X147800000Y-116685000D01*
X147800000Y-118765000D02*
X147800000Y-120014000D01*
X147840000Y-115457000D02*
X147840000Y-116685000D01*
X147840000Y-118765000D02*
X147840000Y-119993000D01*
X147880000Y-115479000D02*
X147880000Y-116685000D01*
X147880000Y-118765000D02*
X147880000Y-119971000D01*
X147920000Y-115502000D02*
X147920000Y-116685000D01*
X147920000Y-118765000D02*
X147920000Y-119948000D01*
X147960000Y-115526000D02*
X147960000Y-116685000D01*
X147960000Y-118765000D02*
X147960000Y-119924000D01*
X148000000Y-115550000D02*
X148000000Y-116685000D01*
X148000000Y-118765000D02*
X148000000Y-119900000D01*
X148040000Y-115576000D02*
X148040000Y-116685000D01*
X148040000Y-118765000D02*
X148040000Y-119874000D01*
X148080000Y-115603000D02*
X148080000Y-116685000D01*
X148080000Y-118765000D02*
X148080000Y-119847000D01*
X148120000Y-115631000D02*
X148120000Y-116685000D01*
X148120000Y-118765000D02*
X148120000Y-119819000D01*
X148160000Y-115660000D02*
X148160000Y-116685000D01*
X148160000Y-118765000D02*
X148160000Y-119790000D01*
X148200000Y-115690000D02*
X148200000Y-116685000D01*
X148200000Y-118765000D02*
X148200000Y-119760000D01*
X148240000Y-115722000D02*
X148240000Y-116685000D01*
X148240000Y-118765000D02*
X148240000Y-119728000D01*
X148280000Y-115755000D02*
X148280000Y-116685000D01*
X148280000Y-118765000D02*
X148280000Y-119695000D01*
X148320000Y-115789000D02*
X148320000Y-116685000D01*
X148320000Y-118765000D02*
X148320000Y-119661000D01*
X148360000Y-115824000D02*
X148360000Y-116685000D01*
X148360000Y-118765000D02*
X148360000Y-119626000D01*
X148400000Y-115861000D02*
X148400000Y-116685000D01*
X148400000Y-118765000D02*
X148400000Y-119589000D01*
X148440000Y-115900000D02*
X148440000Y-116685000D01*
X148440000Y-118765000D02*
X148440000Y-119550000D01*
X148480000Y-115940000D02*
X148480000Y-116685000D01*
X148480000Y-118765000D02*
X148480000Y-119510000D01*
X148520000Y-115982000D02*
X148520000Y-116685000D01*
X148520000Y-118765000D02*
X148520000Y-119468000D01*
X148560000Y-116026000D02*
X148560000Y-116685000D01*
X148560000Y-118765000D02*
X148560000Y-119424000D01*
X148600000Y-116073000D02*
X148600000Y-116685000D01*
X148600000Y-118765000D02*
X148600000Y-119377000D01*
X148640000Y-116121000D02*
X148640000Y-119329000D01*
X148680000Y-116172000D02*
X148680000Y-119278000D01*
X148720000Y-116226000D02*
X148720000Y-119224000D01*
X148760000Y-116282000D02*
X148760000Y-119168000D01*
X148800000Y-116342000D02*
X148800000Y-119108000D01*
X148840000Y-116406000D02*
X148840000Y-119044000D01*
X148880000Y-116474000D02*
X148880000Y-118976000D01*
X148920000Y-116548000D02*
X148920000Y-118902000D01*
X148960000Y-116627000D02*
X148960000Y-118823000D01*
X149000000Y-116714000D02*
X149000000Y-118736000D01*
X149040000Y-116811000D02*
X149040000Y-118639000D01*
X149080000Y-116920000D02*
X149080000Y-118530000D01*
X149120000Y-117048000D02*
X149120000Y-118402000D01*
X149160000Y-117208000D02*
X149160000Y-118242000D01*
X149200000Y-117442000D02*
X149200000Y-118008000D01*
X149220000Y-117725000D02*
G75*
G02*
X143980000Y-117725000I-2620000J0D01*
G01*
X143980000Y-117725000D02*
G75*
G02*
X149220000Y-117725000I2620000J0D01*
G01*
%TO.C,D8*%
X144665000Y-109264000D02*
X144665000Y-109420000D01*
X144665000Y-111580000D02*
X144665000Y-111736000D01*
X144665000Y-109264484D02*
G75*
G02*
X147896437Y-109420000I1560000J-1235516D01*
G01*
X145184039Y-109420000D02*
G75*
G02*
X147265961Y-109420000I1040961J-1080000D01*
G01*
X147265961Y-111580000D02*
G75*
G02*
X145184039Y-111580000I-1040961J1080000D01*
G01*
X147896437Y-111580000D02*
G75*
G02*
X144665000Y-111735516I-1671437J1080000D01*
G01*
%TD*%
M02*
